HIERARCHY
ROOT root
{
	OFFSET 0.000000 0.000000 0.000000
	CHANNELS 6 Xposition Yposition Zposition Zrotation Yrotation Xrotation
	JOINT lhip
	{
		OFFSET 0.058581 -0.082280 -0.017664
		CHANNELS 3 Zrotation Yrotation Xrotation
		JOINT lknee
		{
			OFFSET 0.043451 -0.386469 0.008037
			CHANNELS 3 Zrotation Yrotation Xrotation
			JOINT lankle
			{
				OFFSET -0.014790 -0.426874 -0.037428
				CHANNELS 3 Zrotation Yrotation Xrotation
				JOINT ltoe
				{
					OFFSET 0.041054 -0.060286 0.122042
					CHANNELS 3 Zrotation Yrotation Xrotation
					End Site
					{
						OFFSET 0.000000 0.000000 0.000000
					}
				}
			}
		}
	}
	JOINT rhip
	{
		OFFSET -0.060310 -0.090513 -0.013543
		CHANNELS 3 Zrotation Yrotation Xrotation
		JOINT rknee
		{
			OFFSET -0.043257 -0.383688 -0.004843
			CHANNELS 3 Zrotation Yrotation Xrotation
			JOINT rankle
			{
				OFFSET 0.019056 -0.420046 -0.034562
				CHANNELS 3 Zrotation Yrotation Xrotation
				JOINT rtoe
				{
					OFFSET -0.034840 -0.062106 0.130323
					CHANNELS 3 Zrotation Yrotation Xrotation
					End Site
					{
						OFFSET 0.000000 0.000000 0.000000
					}
				}
			}
		}
	}
	JOINT lowerback
	{
		OFFSET 0.004439 0.124404 -0.038385
		CHANNELS 3 Zrotation Yrotation Xrotation
		JOINT upperback
		{
			OFFSET 0.004488 0.137956 0.026820
			CHANNELS 3 Zrotation Yrotation Xrotation
			JOINT chest
			{
				OFFSET -0.002265 0.056032 0.002855
				CHANNELS 3 Zrotation Yrotation Xrotation
				JOINT lowerneck
				{
					OFFSET -0.013390 0.211636 -0.033468
					CHANNELS 3 Zrotation Yrotation Xrotation
					JOINT upperneck
					{
						OFFSET 0.010113 0.088937 0.050410
						CHANNELS 3 Zrotation Yrotation Xrotation
						End Site
						{
							OFFSET 0.000000 0.000000 0.000000
						}
					}
				}
				JOINT lclavicle
				{
					OFFSET 0.071702 0.114000 -0.018898
					CHANNELS 3 Zrotation Yrotation Xrotation
					JOINT lshoulder
					{
						OFFSET 0.122921 0.045205 -0.019046
						CHANNELS 3 Zrotation Yrotation Xrotation
						JOINT lelbow
						{
							OFFSET 0.255332 -0.015649 -0.022946
							CHANNELS 3 Zrotation Yrotation Xrotation
							JOINT lwrist
							{
								OFFSET 0.265709 0.012698 -0.007375
								CHANNELS 3 Zrotation Yrotation Xrotation
								End Site
								{
									OFFSET 0.000000 0.000000 0.000000
								}
							}
						}
					}
				}
				JOINT rclavicle
				{
					OFFSET -0.082954 0.112472 -0.023707
					CHANNELS 3 Zrotation Yrotation Xrotation
					JOINT rshoulder
					{
						OFFSET -0.113228 0.046853 -0.008472
						CHANNELS 3 Zrotation Yrotation Xrotation
						JOINT relbow
						{
							OFFSET -0.260127 -0.014369 -0.031269
							CHANNELS 3 Zrotation Yrotation Xrotation
							JOINT rwrist
							{
								OFFSET -0.269108 0.006794 -0.006027
								CHANNELS 3 Zrotation Yrotation Xrotation
								End Site
								{
									OFFSET 0.000000 0.000000 0.000000
								}
							}
						}
					}
				}
			}
		}
	}
}
MOTION
Frames: 14
Frame Time: 0.033333
0.034174 0.186043 1.004018 -179.165192 1.410567 93.518234 5.783720 0.885058 -2.553092 0.200009 -2.524943 -4.323309 -1.795225 5.865812 -3.025675 0.000000 -0.000000 0.000000 -2.582943 -2.048251 -5.436044 1.392952 0.847327 3.207466 4.992109 -4.684369 -3.592715 0.000000 -0.000000 0.000000 2.733695 -1.036059 5.640644 -4.176527 0.575242 -3.807354 0.338295 2.676376 -10.569744 -0.868276 -11.081231 -2.234388 4.988840 5.618133 4.760268 -21.342142 -23.440231 -0.685823 -47.266637 -24.838940 25.281204 144.891467 -83.768247 -127.556219 18.407263 -21.697275 -17.649324 -4.100769 27.284262 -5.843815 -12.530899 22.875038 -9.136175 160.311309 78.948172 168.699827 -5.530221 28.943761 -37.160404 
0.034045 0.185671 1.003940 -179.145291 1.388531 93.507857 5.754593 0.896817 -2.581324 0.177009 -2.541755 -4.312873 -1.809725 5.895025 -2.966373 0.000000 -0.000000 0.000000 -2.638269 -2.032176 -5.434118 1.414319 0.820048 3.179356 5.103565 -4.718253 -3.538590 0.000000 -0.000000 0.000000 2.711024 -1.038004 5.658737 -4.183146 0.572495 -3.924138 0.346170 2.655183 -10.454178 -0.820130 -11.066116 -2.222626 4.946652 5.628275 4.767747 -21.329369 -23.481536 -0.679684 -47.252477 -24.849594 25.300361 144.592767 -83.706954 -127.226305 18.428419 -21.653036 -17.545286 -4.138013 27.270921 -5.811815 -12.522192 22.877653 -9.140223 160.709288 78.939241 169.215223 -5.682818 28.823210 -37.380005 
0.033884 0.185239 1.003872 -179.108123 1.350477 93.464974 5.705228 0.913465 -2.578541 0.168117 -2.570490 -4.371769 -1.844150 5.936115 -2.872361 0.000000 -0.000000 0.000000 -2.727611 -2.007590 -5.377812 1.459285 0.780729 3.117033 5.300553 -4.765901 -3.455789 0.000000 -0.000000 0.000000 2.702070 -1.035707 5.711473 -4.195418 0.572418 -4.073434 0.345710 2.633276 -10.239209 -0.728579 -11.054875 -2.205871 4.851826 5.600648 4.713397 -21.350472 -23.540447 -0.693836 -47.153396 -24.895872 25.300408 144.124601 -83.606129 -126.728607 18.562892 -21.673124 -17.311830 -4.198038 27.209094 -5.780468 -12.547129 22.871154 -9.174151 161.820262 78.828327 170.527058 -5.953623 28.590516 -37.836632 
0.033831 0.184751 1.003851 -179.073934 1.330448 93.409157 5.698204 0.930179 -2.563700 0.121516 -2.586304 -4.337413 -1.941690 5.923554 -2.793118 0.000000 -0.000000 0.000000 -2.759206 -2.024583 -5.330706 1.454623 0.768742 3.094444 5.385268 -4.779971 -3.411118 0.000000 -0.000000 0.000000 2.696736 -1.030956 5.808305 -4.203857 0.569270 -4.161765 0.306981 2.611306 -10.170653 -0.650810 -11.046351 -2.211143 4.912050 5.582307 4.741183 -21.248649 -23.527214 -0.707945 -47.243127 -25.068727 25.251840 143.957622 -83.635146 -126.110631 18.721510 -21.908295 -18.050530 -4.251574 27.124420 -5.770573 -12.507285 22.915756 -9.255990 162.484772 78.776355 171.526187 -6.208225 28.696612 -38.191298 
0.033779 0.184546 1.003870 -179.124933 1.325167 93.427281 5.685347 0.921521 -2.578002 0.162940 -2.643000 -4.342665 -1.892590 5.928048 -2.743473 0.000000 -0.000000 0.000000 -2.780163 -2.026354 -5.367858 1.467280 0.777784 3.082265 5.433993 -4.731260 -3.374229 0.000000 -0.000000 0.000000 2.688592 -1.019805 5.800279 -4.211594 0.590111 -4.220453 0.321956 2.615102 -10.143582 -0.664458 -11.041856 -2.151550 4.951759 5.640436 4.747774 -21.119777 -23.483291 -0.771202 -47.436246 -24.997002 25.368938 144.491779 -83.494634 -126.563128 18.805452 -21.661519 -17.903594 -4.338990 27.109256 -5.856462 -12.384167 22.967700 -9.241499 162.655365 78.788290 171.683570 -6.069555 28.644637 -38.211204 
0.033755 0.184424 1.003837 -179.117698 1.334338 93.390947 5.691779 0.931779 -2.546269 0.159974 -2.663284 -4.372487 -1.901284 5.922706 -2.725276 0.000000 -0.000000 0.000000 -2.771618 -2.044777 -5.332082 1.462141 0.778683 3.060615 5.437001 -4.706545 -3.348942 0.000000 -0.000000 0.000000 2.702114 -1.032799 5.776893 -4.203474 0.586327 -4.209734 0.320707 2.620320 -10.117136 -0.684979 -11.021062 -2.096465 4.934869 5.632029 4.751998 -21.027252 -23.431563 -0.809284 -47.550633 -24.998975 25.377734 144.771692 -83.456618 -126.758901 18.800673 -21.550956 -17.993020 -4.412915 27.077109 -5.865309 -12.331205 23.034643 -9.293251 162.714773 78.797380 171.888670 -6.097189 28.573997 -38.182889 
0.033661 0.184211 1.003796 -179.166285 1.333064 93.348688 5.686264 0.909543 -2.494548 0.184134 -2.637695 -4.395934 -1.954490 5.934597 -2.738800 0.000000 -0.000000 0.000000 -2.778708 -2.041237 -5.320482 1.463881 0.808271 3.110300 5.418331 -4.724422 -3.383222 0.000000 -0.000000 0.000000 2.722107 -1.020166 5.712209 -4.196347 0.594739 -4.083889 0.327104 2.589981 -10.088125 -0.685496 -11.015227 -2.159838 4.871853 5.646779 4.759491 -21.049979 -23.435727 -0.787248 -47.568489 -24.986833 25.356828 145.053862 -83.275958 -127.002618 18.911126 -21.567774 -17.978586 -4.477834 27.090359 -5.866810 -12.378154 23.097098 -9.359991 163.220261 78.758938 172.362226 -6.122045 28.546820 -38.234908 
0.033730 0.184223 1.003826 -179.153604 1.354630 93.290505 5.728182 0.895794 -2.392721 0.176839 -2.618084 -4.463014 -1.890390 5.910676 -2.717288 0.000000 -0.000000 0.000000 -2.730997 -2.078452 -5.205807 1.431842 0.886187 2.997648 5.418988 -4.747072 -3.282292 0.000000 -0.000000 0.000000 2.700316 -1.012759 5.626484 -4.159486 0.571860 -3.921342 0.333666 2.585679 -10.144662 -0.664210 -10.985225 -2.054180 4.891435 5.701525 4.784143 -21.132145 -23.516084 -0.706266 -47.382418 -24.977208 25.328785 145.834418 -83.203794 -127.913242 19.053982 -21.563394 -17.962904 -4.409953 27.139008 -5.786077 -12.418744 23.084679 -9.379699 163.768186 78.747806 172.780379 -6.228879 28.544965 -38.180050 
0.033686 0.184005 1.003753 -179.165666 1.328391 93.295370 5.691084 0.912062 -2.435296 0.174902 -2.594472 -4.420913 -1.831843 5.917987 -2.758316 0.000000 -0.000000 0.000000 -2.761961 -2.053805 -5.213622 1.423248 0.933140 2.973717 5.430183 -4.770350 -3.334752 0.000000 -0.000000 0.000000 2.711702 -0.995601 5.648456 -4.187841 0.576885 -4.006215 0.288830 2.550110 -10.140960 -0.644420 -10.999402 -2.037337 4.918503 5.754873 4.878861 -21.083759 -23.552971 -0.689543 -47.310205 -25.045143 25.260003 146.421598 -83.276051 -128.279671 19.356682 -21.599484 -18.173166 -4.471718 27.131760 -5.719413 -12.363193 23.082673 -9.393861 164.200112 78.728836 173.267442 -6.446956 28.436743 -38.368223 
0.033675 0.183785 1.003721 -179.169218 1.301656 93.293835 5.680995 0.865560 -2.456770 0.159090 -2.646343 -4.378518 -1.922139 5.938764 -2.658006 0.000000 -0.000000 0.000000 -2.795459 -2.043609 -5.224542 1.405522 0.854512 2.962110 5.467034 -4.749005 -3.258969 0.000000 -0.000000 0.000000 2.664507 -1.002205 5.630822 -4.191251 0.551779 -4.014970 0.314789 2.587063 -10.127443 -0.675157 -10.976397 -1.938871 4.937475 5.743688 4.739429 -20.977492 -23.523603 -0.732085 -47.523385 -25.010266 25.372109 146.678564 -83.195296 -128.553164 19.499293 -21.395368 -18.099285 -4.549778 27.072927 -5.738071 -12.300512 23.160657 -9.473548 164.162091 78.620182 173.324496 -6.550821 28.310582 -38.378909 
0.033666 0.183774 1.003705 -179.199527 1.313940 93.237744 5.689341 0.896917 -2.390025 0.126387 -2.574324 -4.363089 -1.897063 5.980378 -2.742959 0.000000 -0.000000 0.000000 -2.789737 -2.039759 -5.187842 1.416288 0.887749 2.998116 5.471777 -4.736345 -3.280251 0.000000 -0.000000 0.000000 2.683080 -0.998554 5.600752 -4.203339 0.546169 -3.939930 0.322274 2.567681 -10.078205 -0.677546 -10.976231 -1.952911 4.920534 5.708831 4.653500 -20.968971 -23.560972 -0.727809 -47.584736 -24.896151 25.424292 145.599176 -83.038870 -127.740087 19.378846 -21.368695 -17.842177 -4.576292 27.071200 -5.799508 -12.294691 23.187761 -9.470849 164.331774 78.575684 173.296857 -6.527859 28.249963 -38.425858 
0.033684 0.183625 1.003693 -179.200664 1.323194 93.235306 5.695700 0.917512 -2.408588 0.169728 -2.581809 -4.380832 -1.905606 5.897067 -2.754451 0.000000 -0.000000 0.000000 -2.772479 -2.011691 -5.219464 1.416806 0.886444 3.046980 5.455404 -4.784781 -3.276720 0.000000 -0.000000 0.000000 2.697150 -1.005962 5.643303 -4.207192 0.558665 -3.965345 0.294744 2.564016 -10.111628 -0.630744 -10.953068 -1.957359 4.924735 5.706311 4.653807 -21.035308 -23.558245 -0.680720 -47.507090 -24.980319 25.318954 145.862130 -83.103133 -127.836407 19.354669 -21.698072 -18.012667 -4.566524 27.065491 -5.750943 -12.277148 23.168610 -9.476500 164.540291 78.573068 173.614560 -6.653710 28.341027 -38.518365 
0.033678 0.183585 1.003701 -179.202842 1.321108 93.230989 5.692017 0.905666 -2.400688 0.179822 -2.584654 -4.404650 -1.904838 5.899718 -2.729342 0.000000 -0.000000 0.000000 -2.774206 -2.005130 -5.200007 1.412118 0.883436 3.014010 5.464528 -4.785271 -3.262451 0.000000 -0.000000 0.000000 2.697378 -1.007420 5.637044 -4.208877 0.548183 -3.954170 0.281591 2.554190 -10.106374 -0.610111 -10.954356 -1.969167 4.938673 5.679649 4.662331 -21.052919 -23.571443 -0.671019 -47.436273 -25.005280 25.286034 145.959512 -83.105658 -127.900913 19.357594 -21.753799 -18.162158 -4.547466 27.074822 -5.734641 -12.276792 23.172110 -9.475591 164.628785 78.582356 173.742538 -6.669049 28.309153 -38.546379 
0.033765 0.183466 1.003788 -179.198773 1.284308 93.224765 5.662812 0.831174 -2.408474 0.168654 -2.622220 -4.302766 -1.819285 5.913695 -2.647905 0.000000 -0.000000 0.000000 -2.813031 -1.993394 -5.167133 1.408867 0.885641 2.950040 5.481828 -4.782030 -3.196117 0.000000 -0.000000 0.000000 2.629857 -0.985816 5.625983 -4.198204 0.529755 -3.863560 0.262082 2.531134 -10.168249 -0.569507 -10.997082 -1.921512 4.966146 5.611354 4.601415 -21.113650 -23.576428 -0.631462 -47.299254 -25.044131 25.251572 146.506236 -83.114122 -128.458084 19.457120 -21.773093 -18.276968 -4.473079 27.080897 -5.663566 -12.264956 23.195513 -9.472032 164.952912 78.553470 174.038526 -6.784239 28.153608 -38.707056 
